<svg xmlns="http://www.w3.org/2000/svg" width="167" height="167" fill="none" viewBox="0 0 167 167">
    <path fill="#fff" d="M-772 -277H668V747H-772z"/>
    <rect width="660" height="783" x="-42" y="-97" fill="#DCECFF" rx="10"/>
    <circle cx="83.6" cy="83.428" r="81.241" fill="#fff" stroke="#2C704F" stroke-width="5"/>
    <circle cx="83.6" cy="83.428" r="74.294" fill="#fff" stroke="#2C704F" stroke-width="5"/>
    <path fill="#2C704F" d="M64.62 76.602l-1.25 1.55c.7-.35 1.45-.617 2.25-.8.817-.2 1.692-.3 2.625-.3 1.367 0 2.692.224 3.975.674 1.3.45 2.442 1.134 3.425 2.05.984.9 1.775 2.026 2.375 3.376.6 1.35.9 2.924.9 4.724 0 1.684-.308 3.267-.925 4.75-.616 1.467-1.483 2.75-2.6 3.85-1.116 1.1-2.466 1.967-4.05 2.6-1.566.634-3.3.95-5.2.95-1.933 0-3.666-.308-5.2-.924-1.533-.617-2.841-1.476-3.925-2.576-1.083-1.116-1.916-2.45-2.5-4-.566-1.566-.85-3.3-.85-5.2 0-1.7.342-3.441 1.025-5.224.7-1.8 1.775-3.667 3.225-5.6l8.625-11.575c.3-.4.734-.742 1.3-1.026.584-.283 1.25-.425 2-.425h5.5L64.62 76.603zm1.4 18.374c.984 0 1.884-.166 2.7-.5.834-.333 1.542-.8 2.125-1.4.6-.6 1.067-1.3 1.4-2.1.334-.816.5-1.7.5-2.65 0-1.033-.158-1.958-.475-2.774-.316-.834-.766-1.534-1.35-2.1-.583-.584-1.283-1.025-2.1-1.326-.816-.3-1.716-.45-2.7-.45-.983 0-1.875.167-2.675.5-.8.334-1.483.8-2.05 1.4-.566.584-1.008 1.284-1.325 2.1-.316.8-.475 1.667-.475 2.6 0 1 .134 1.917.4 2.75.284.817.692 1.517 1.225 2.1.55.584 1.225 1.042 2.025 1.375.8.317 1.725.475 2.775.475zm29.054.225c1.017 0 1.909-.141 2.675-.424.767-.3 1.409-.709 1.925-1.225.534-.517.934-1.134 1.2-1.85.267-.717.4-1.492.4-2.326 0-1.983-.55-3.483-1.65-4.5-1.1-1.016-2.616-1.525-4.55-1.525-1.933 0-3.45.509-4.55 1.525-1.1 1.017-1.65 2.517-1.65 4.5 0 .834.134 1.609.4 2.325.267.717.659 1.334 1.175 1.85.534.517 1.184.925 1.95 1.225.767.284 1.659.425 2.675.425zm0-27.474c-.916 0-1.708.141-2.375.424-.666.284-1.225.667-1.675 1.15-.433.467-.758 1.009-.975 1.626-.2.616-.3 1.266-.3 1.95 0 .716.084 1.416.25 2.1.184.666.484 1.266.9 1.8.417.516.967.933 1.65 1.25.684.316 1.525.474 2.525.474s1.842-.158 2.525-.475c.684-.316 1.234-.733 1.65-1.25.417-.533.709-1.133.875-1.8.184-.683.275-1.383.275-2.1 0-.683-.108-1.333-.325-1.95-.216-.616-.541-1.158-.975-1.624-.433-.484-.983-.867-1.65-1.15-.666-.284-1.458-.425-2.375-.425zm6.1 13.05c2.2.716 3.825 1.816 4.875 3.3 1.05 1.466 1.575 3.266 1.575 5.4 0 1.6-.308 3.05-.925 4.35-.6 1.3-1.45 2.408-2.55 3.325-1.1.916-2.425 1.624-3.975 2.124-1.533.5-3.233.75-5.1.75-1.866 0-3.575-.25-5.125-.75-1.533-.5-2.85-1.208-3.95-2.124-1.1-.917-1.958-2.026-2.575-3.326-.6-1.3-.9-2.75-.9-4.35 0-2.133.525-3.933 1.575-5.4 1.05-1.483 2.675-2.583 4.875-3.3-1.75-.733-3.066-1.775-3.95-3.124-.866-1.35-1.3-2.975-1.3-4.876 0-1.366.275-2.641.825-3.825.567-1.183 1.35-2.208 2.35-3.075 1-.883 2.192-1.566 3.575-2.05 1.4-.5 2.934-.75 4.6-.75 1.667 0 3.192.25 4.575.75 1.4.484 2.6 1.167 3.6 2.05 1 .867 1.775 1.892 2.325 3.075.567 1.184.85 2.459.85 3.826 0 1.9-.441 3.525-1.325 4.874-.866 1.35-2.175 2.392-3.925 3.126z"/>
    <path stroke="#2C704F" stroke-width="7" d="M82.716 4.818l17.478 2.202 18.137 5.788 21.225 15.436 15.822 23.154 5.788 18.524v26.241l-9.647 26.241-15.436 20.067-26.628 15.822-28.17 4.245-29.715-7.332-17.365-10.805-10.806-10.034"/>
    <circle cx="22.241" cy="129.351" r="12.349" fill="#2C704F"/>
</svg>
