<svg xmlns="http://www.w3.org/2000/svg" width="32" height="32" fill="none" viewBox="0 0 32 32">
    <path fill="#fff" d="M-248 -507H1192V517H-248z"/>
    <rect width="660" height="568" x="-198" y="-112" fill="#DCECFF" rx="10"/>
    <path stroke="#40A172" stroke-width="3" d="M21.631 12.566l7.113.973-5.045 4.626c-.633.58-.924 1.446-.77 2.29l1.208 6.63-6.529-3.23c-.698-.345-1.518-.345-2.217 0l-6.527 3.23 1.208-6.63c.154-.844-.137-1.71-.77-2.29l-5.045-4.627 7.112-.972c.801-.11 1.5-.6 1.875-1.316L16.5 5.042l3.256 6.208c.375.716 1.074 1.207 1.875 1.316zm-4.67-8.403s0 0 0 0h0zm-.922 0s0 0 0 0h0z"/>
</svg>
