<svg xmlns="http://www.w3.org/2000/svg" width="32" height="32" fill="none" viewBox="0 0 32 32">
    <path fill="#fff" d="M-109 -507H1331V517H-109z"/>
    <rect width="660" height="568" x="-59" y="-112" fill="#DCECFF" rx="10"/>
    <path fill="url(#prefix__paint0_radial)" d="M29.952 12.84c-.114-.33-.416-.57-.78-.62l-7.316-1c-.962-.132-1.8-.72-2.25-1.58l-3.239-6.174c-.326-.621-1.408-.621-1.734 0L11.395 9.64c-.451.859-1.29 1.447-2.25 1.579l-7.317 1c-.364.05-.666.29-.78.62-.114.329-.02.69.244.932l5.183 4.753c.76.696 1.108 1.734.923 2.748l-1.214 6.664c-.062.34.087.685.385.89.299.203.693.228 1.018.068l6.583-3.256c.838-.415 1.822-.415 2.66 0l6.584 3.256c.141.07.296.105.45.105.2 0 .4-.058.568-.174.298-.204.446-.548.385-.89l-1.214-6.663c-.185-1.014.164-2.052.923-2.748l5.183-4.753c.263-.242.358-.603.243-.933z"/>
    <defs>
        <radialGradient id="prefix__paint0_radial" cx="0" cy="0" r="1" gradientTransform="matrix(0 13 -14.5 0 15.5 16)" gradientUnits="userSpaceOnUse">
            <stop stop-color="#4BB581"/>
            <stop offset="1" stop-color="#3D9C6E"/>
        </radialGradient>
    </defs>
</svg>
