<svg xmlns="http://www.w3.org/2000/svg" xmlns:xlink="http://www.w3.org/1999/xlink" width="320" height="129" fill="none" viewBox="0 0 320 129">
    <path fill="#fff" d="M-562 -128H878V896H-562z"/>
    <path fill="#444" d="M33.792 34.144c-.256.448-.533.779-.832.992-.277.192-.63.288-1.056.288-.448 0-.939-.16-1.472-.48-.512-.341-1.13-.715-1.856-1.12-.725-.405-1.579-.768-2.56-1.088-.96-.341-2.101-.512-3.424-.512-1.195 0-2.24.15-3.136.448-.896.277-1.653.672-2.272 1.184-.597.512-1.045 1.13-1.344 1.856-.299.704-.448 1.483-.448 2.336 0 1.088.299 1.995.896 2.72.619.725 1.43 1.344 2.432 1.856 1.003.512 2.144.97 3.424 1.376 1.28.405 2.592.843 3.936 1.312 1.344.448 2.656.981 3.936 1.6 1.28.597 2.421 1.365 3.424 2.304 1.003.917 1.803 2.048 2.4 3.392.619 1.344.928 2.976.928 4.896 0 2.09-.363 4.053-1.088 5.888-.704 1.813-1.75 3.403-3.136 4.768-1.365 1.344-3.04 2.41-5.024 3.2-1.984.768-4.256 1.152-6.816 1.152-1.472 0-2.923-.15-4.352-.448-1.43-.277-2.805-.683-4.128-1.216-1.301-.533-2.528-1.173-3.68-1.92-1.152-.747-2.176-1.579-3.072-2.496L8 62.304c.213-.299.49-.544.832-.736.341-.213.704-.32 1.088-.32.533 0 1.11.224 1.728.672.619.427 1.355.907 2.208 1.44.853.533 1.845 1.024 2.976 1.472 1.152.427 2.528.64 4.128.64 2.453 0 4.352-.576 5.696-1.728 1.344-1.173 2.016-2.848 2.016-5.024 0-1.216-.31-2.208-.928-2.976-.597-.768-1.397-1.408-2.4-1.92-1.003-.533-2.144-.981-3.424-1.344-1.28-.363-2.581-.757-3.904-1.184-1.323-.427-2.624-.939-3.904-1.536-1.28-.597-2.421-1.376-3.424-2.336-1.003-.96-1.813-2.155-2.432-3.584-.597-1.45-.896-3.232-.896-5.344 0-1.685.33-3.328.992-4.928.683-1.6 1.664-3.019 2.944-4.256s2.859-2.23 4.736-2.976c1.877-.747 4.032-1.12 6.464-1.12 2.73 0 5.248.427 7.552 1.28 2.304.853 4.267 2.048 5.888 3.584l-2.144 4.064zm26.143 23.84c-2.282.107-4.202.31-5.76.608-1.557.277-2.805.64-3.743 1.088-.94.448-1.611.97-2.017 1.568-.405.597-.608 1.248-.608 1.952 0 1.387.406 2.379 1.216 2.976.832.597 1.91.896 3.232.896 1.622 0 3.02-.288 4.192-.864 1.195-.597 2.358-1.493 3.488-2.688v-5.536zm-18.111-14.24c3.776-3.456 8.32-5.184 13.632-5.184 1.92 0 3.637.32 5.151.96 1.515.619 2.795 1.493 3.84 2.624 1.046 1.11 1.835 2.443 2.368 4 .555 1.557.832 3.264.832 5.12V72h-3.584c-.746 0-1.322-.107-1.727-.32-.406-.235-.726-.693-.96-1.376l-.704-2.368c-.832.747-1.643 1.408-2.432 1.984-.79.555-1.611 1.024-2.465 1.408-.853.384-1.77.672-2.752.864-.96.213-2.026.32-3.2.32-1.386 0-2.666-.181-3.84-.544-1.173-.384-2.186-.95-3.04-1.696-.853-.747-1.514-1.675-1.983-2.784-.47-1.11-.705-2.4-.705-3.872 0-.832.14-1.653.416-2.464.278-.832.726-1.621 1.345-2.368.64-.747 1.46-1.45 2.464-2.112 1.002-.661 2.229-1.237 3.68-1.728 1.472-.49 3.178-.885 5.12-1.184 1.94-.32 4.16-.512 6.655-.576v-1.92c0-2.197-.469-3.819-1.407-4.864-.94-1.067-2.294-1.6-4.064-1.6-1.28 0-2.347.15-3.2.448-.833.299-1.569.64-2.209 1.024-.64.363-1.226.693-1.76.992-.512.299-1.087.448-1.727.448-.555 0-1.024-.139-1.408-.416-.384-.299-.694-.64-.928-1.024l-1.408-2.528zM76.833 72V45.12l-2.848-.448c-.619-.128-1.12-.341-1.504-.64-.363-.32-.544-.768-.544-1.344v-3.232h4.896v-2.432c0-1.877.277-3.563.832-5.056.576-1.493 1.387-2.763 2.432-3.808 1.067-1.045 2.357-1.845 3.872-2.4 1.515-.555 3.221-.832 5.12-.832 1.515 0 2.923.203 4.224.608l-.16 3.968c-.021.299-.107.544-.256.736-.15.17-.352.31-.608.416-.235.085-.512.15-.832.192-.32.021-.661.032-1.024.032-.939 0-1.781.107-2.528.32-.725.192-1.344.544-1.856 1.056-.512.49-.907 1.152-1.184 1.984-.256.81-.384 1.824-.384 3.04v2.176h8.544v5.632h-8.288V72h-7.904zm40.911-20.192c0-1.024-.15-1.984-.448-2.88-.278-.917-.704-1.717-1.28-2.4-.576-.683-1.312-1.216-2.208-1.6-.875-.405-1.899-.608-3.072-.608-2.283 0-4.086.65-5.408 1.952-1.302 1.301-2.134 3.147-2.496 5.536h14.912zm-15.072 4.768c.128 1.685.426 3.147.896 4.384.469 1.216 1.088 2.23 1.856 3.04.768.79 1.674 1.387 2.72 1.792 1.066.384 2.24.576 3.52.576 1.28 0 2.378-.15 3.296-.448.938-.299 1.749-.63 2.432-.992.704-.363 1.312-.693 1.824-.992.533-.299 1.045-.448 1.536-.448.661 0 1.152.245 1.472.736l2.272 2.88c-.875 1.024-1.856 1.888-2.944 2.592-1.088.683-2.23 1.237-3.424 1.664-1.174.405-2.379.693-3.616.864-1.216.17-2.4.256-3.552.256-2.283 0-4.406-.373-6.368-1.12-1.963-.768-3.67-1.888-5.12-3.36-1.451-1.493-2.593-3.328-3.424-5.504-.832-2.197-1.249-4.736-1.249-7.616 0-2.24.363-4.341 1.088-6.304.726-1.984 1.76-3.701 3.105-5.152 1.365-1.472 3.018-2.635 4.96-3.488 1.962-.853 4.17-1.28 6.624-1.28 2.069 0 3.978.33 5.728.992 1.749.661 3.253 1.632 4.512 2.912 1.258 1.259 2.24 2.816 2.944 4.672.725 1.835 1.087 3.936 1.087 6.304 0 1.195-.127 2.005-.383 2.432-.256.405-.747.608-1.472.608h-20.32z"/>
    <path fill="#4BB581" d="M140.667 32.576v12.832h16.192v6.624h-16.192V65.12h20.544V72h-29.184V25.728h29.184v6.848h-20.544zm44.081 25.408c-2.283.107-4.203.31-5.76.608-1.557.277-2.805.64-3.744 1.088-.939.448-1.611.97-2.016 1.568-.405.597-.608 1.248-.608 1.952 0 1.387.405 2.379 1.216 2.976.832.597 1.909.896 3.232.896 1.621 0 3.019-.288 4.192-.864 1.195-.597 2.357-1.493 3.488-2.688v-5.536zm-18.112-14.24c3.776-3.456 8.32-5.184 13.632-5.184 1.92 0 3.637.32 5.152.96 1.515.619 2.795 1.493 3.84 2.624 1.045 1.11 1.835 2.443 2.368 4 .555 1.557.832 3.264.832 5.12V72h-3.584c-.747 0-1.323-.107-1.728-.32-.405-.235-.725-.693-.96-1.376l-.704-2.368c-.832.747-1.643 1.408-2.432 1.984-.789.555-1.611 1.024-2.464 1.408-.853.384-1.771.672-2.752.864-.96.213-2.027.32-3.2.32-1.387 0-2.667-.181-3.84-.544-1.173-.384-2.187-.95-3.04-1.696-.853-.747-1.515-1.675-1.984-2.784-.469-1.11-.704-2.4-.704-3.872 0-.832.139-1.653.416-2.464.277-.832.725-1.621 1.344-2.368.64-.747 1.461-1.45 2.464-2.112 1.003-.661 2.229-1.237 3.68-1.728 1.472-.49 3.179-.885 5.12-1.184 1.941-.32 4.16-.512 6.656-.576v-1.92c0-2.197-.469-3.819-1.408-4.864-.939-1.067-2.293-1.6-4.064-1.6-1.28 0-2.347.15-3.2.448-.832.299-1.568.64-2.208 1.024-.64.363-1.227.693-1.76.992-.512.299-1.088.448-1.728.448-.555 0-1.024-.139-1.408-.416-.384-.299-.693-.64-.928-1.024l-1.408-2.528zm43.775 28.768c-2.859 0-5.056-.8-6.592-2.4-1.515-1.621-2.272-3.85-2.272-6.688V45.088h-3.36c-.427 0-.79-.139-1.088-.416-.299-.277-.448-.693-.448-1.248v-3.136l5.28-.864 1.664-8.96c.106-.427.309-.757.608-.992.298-.235.682-.352 1.152-.352h4.096v10.336h8.768v5.632h-8.768V62.88c0 1.024.245 1.824.736 2.4.512.576 1.205.864 2.08.864.49 0 .896-.053 1.216-.16.341-.128.629-.256.864-.384.256-.128.48-.245.672-.352.192-.128.384-.192.576-.192.234 0 .426.064.576.192.149.107.309.277.48.512l2.368 3.84c-1.152.96-2.475 1.685-3.968 2.176-1.494.49-3.04.736-4.64.736zm32.9-26.944c-.213.341-.437.587-.672.736-.235.128-.533.192-.896.192-.384 0-.8-.107-1.248-.32-.427-.213-.928-.448-1.504-.704-.576-.277-1.237-.523-1.984-.736-.725-.213-1.589-.32-2.592-.32-1.557 0-2.784.33-3.68.992-.875.661-1.312 1.525-1.312 2.592 0 .704.224 1.301.672 1.792.469.47 1.077.885 1.824 1.248.768.363 1.632.693 2.592.992.96.277 1.931.587 2.912.928 1.003.341 1.984.736 2.944 1.184.96.427 1.813.981 2.56 1.664.768.661 1.376 1.461 1.824 2.4.469.939.704 2.07.704 3.392 0 1.579-.288 3.04-.864 4.384-.555 1.323-1.387 2.475-2.496 3.456-1.109.96-2.485 1.717-4.128 2.272-1.621.533-3.499.8-5.632.8-1.131 0-2.24-.107-3.328-.32-1.067-.192-2.101-.47-3.104-.832-.981-.363-1.899-.79-2.752-1.28-.832-.49-1.568-1.024-2.208-1.6l1.824-3.008c.235-.363.512-.64.832-.832.32-.192.725-.288 1.216-.288s.949.139 1.376.416c.448.277.96.576 1.536.896.576.32 1.248.619 2.016.896.789.277 1.781.416 2.976.416.939 0 1.739-.107 2.4-.32.683-.235 1.237-.533 1.664-.896.448-.363.768-.779.96-1.248.213-.49.32-.992.32-1.504 0-.768-.235-1.397-.704-1.888-.448-.49-1.056-.917-1.824-1.28-.747-.363-1.611-.683-2.592-.96-.96-.299-1.952-.619-2.976-.96-1.003-.341-1.995-.736-2.976-1.184-.96-.47-1.824-1.056-2.592-1.76-.747-.704-1.355-1.568-1.824-2.592-.448-1.024-.672-2.261-.672-3.712 0-1.344.267-2.624.8-3.84.533-1.216 1.312-2.272 2.336-3.168 1.045-.917 2.336-1.643 3.872-2.176 1.557-.555 3.349-.832 5.376-.832 2.261 0 4.32.373 6.176 1.12 1.856.747 3.403 1.728 4.64 2.944l-1.792 2.848z"/>
    <path fill="#5F6368" d="M41.758 98.824v7.218h9.108v3.726h-9.108v7.362h11.556V121H36.898V94.972h16.416v3.852H41.758zm24.796 14.292c-1.284.06-2.364.174-3.24.342-.876.156-1.578.36-2.106.612-.528.252-.906.546-1.134.882-.228.336-.342.702-.342 1.098 0 .78.228 1.338.684 1.674.468.336 1.074.504 1.818.504.912 0 1.698-.162 2.358-.486.672-.336 1.326-.84 1.962-1.512v-3.114zm-10.188-8.01c2.124-1.944 4.68-2.916 7.668-2.916 1.08 0 2.046.18 2.898.54.852.348 1.572.84 2.16 1.476.588.624 1.032 1.374 1.332 2.25.312.876.468 1.836.468 2.88V121h-2.016c-.42 0-.744-.06-.972-.18-.228-.132-.408-.39-.54-.774l-.396-1.332c-.468.42-.924.792-1.368 1.116-.444.312-.906.576-1.386.792-.48.216-.996.378-1.548.486-.54.12-1.14.18-1.8.18-.78 0-1.5-.102-2.16-.306-.66-.216-1.23-.534-1.71-.954-.48-.42-.852-.942-1.116-1.566-.264-.624-.396-1.35-.396-2.178 0-.468.078-.93.234-1.386.156-.468.408-.912.756-1.332.36-.42.822-.816 1.386-1.188s1.254-.696 2.07-.972c.828-.276 1.788-.498 2.88-.666 1.092-.18 2.34-.288 3.744-.324v-1.08c0-1.236-.264-2.148-.792-2.736-.528-.6-1.29-.9-2.286-.9-.72 0-1.32.084-1.8.252-.468.168-.882.36-1.242.576l-.99.558c-.288.168-.612.252-.972.252-.312 0-.576-.078-.792-.234-.216-.168-.39-.36-.522-.576l-.792-1.422zm24.623 16.182c-1.608 0-2.844-.45-3.708-1.35-.852-.912-1.278-2.166-1.278-3.762v-10.314h-1.89c-.24 0-.444-.078-.612-.234-.168-.156-.252-.39-.252-.702v-1.764l2.97-.486.936-5.04c.06-.24.174-.426.342-.558.168-.132.384-.198.648-.198h2.304v5.814h4.932v3.168h-4.932v10.008c0 .576.138 1.026.414 1.35.288.324.678.486 1.17.486.276 0 .504-.03.684-.09.192-.072.354-.144.486-.216.144-.072.27-.138.378-.198.108-.072.216-.108.324-.108.132 0 .24.036.324.108.084.06.174.156.27.288l1.332 2.16c-.648.54-1.392.948-2.232 1.224-.84.276-1.71.414-2.61.414zm41.624-18.756L116.745 121h-3.564c-.408 0-.69-.264-.846-.792l-3.312-10.674c-.108-.36-.21-.714-.306-1.062-.084-.36-.156-.72-.216-1.08-.072.36-.156.726-.252 1.098-.084.36-.18.72-.288 1.08l-3.366 10.638c-.144.528-.462.792-.954.792h-3.42l-5.85-18.468h3.546c.324 0 .6.078.828.234.228.156.378.354.45.594l2.646 9.864c.132.54.246 1.068.342 1.584.108.516.198 1.032.27 1.548.132-.516.27-1.032.414-1.548.156-.516.318-1.044.486-1.584l3.06-9.9c.072-.24.21-.438.414-.594.216-.156.474-.234.774-.234h1.962c.312 0 .576.078.792.234.228.156.378.354.45.594l2.97 9.9c.156.54.3 1.074.432 1.602.144.516.282 1.032.414 1.548.156-1.02.378-2.07.666-3.15l2.718-9.864c.084-.24.234-.438.45-.594.216-.156.474-.234.774-.234h3.384zm7.136 0V121h-4.464v-18.468h4.464zm.612-5.382c0 .384-.078.744-.234 1.08-.156.336-.366.63-.63.882-.252.252-.552.456-.9.612-.348.144-.72.216-1.116.216-.384 0-.75-.072-1.098-.216-.336-.156-.63-.36-.882-.612s-.456-.546-.612-.882c-.144-.336-.216-.696-.216-1.08 0-.396.072-.768.216-1.116.156-.348.36-.648.612-.9s.546-.45.882-.594c.348-.156.714-.234 1.098-.234.396 0 .768.078 1.116.234.348.144.648.342.9.594.264.252.474.552.63.9.156.348.234.72.234 1.116zm10.077 24.138c-1.608 0-2.844-.45-3.708-1.35-.852-.912-1.278-2.166-1.278-3.762v-10.314h-1.89c-.24 0-.444-.078-.612-.234-.168-.156-.252-.39-.252-.702v-1.764l2.97-.486.936-5.04c.06-.24.174-.426.342-.558.168-.132.384-.198.648-.198h2.304v5.814h4.932v3.168h-4.932v10.008c0 .576.138 1.026.414 1.35.288.324.678.486 1.17.486.276 0 .504-.03.684-.09.192-.072.354-.144.486-.216.144-.072.27-.138.378-.198.108-.072.216-.108.324-.108.132 0 .24.036.324.108.084.06.174.156.27.288l1.332 2.16c-.648.54-1.392.948-2.232 1.224-.84.276-1.71.414-2.61.414zm11.684-16.776c.72-.672 1.512-1.218 2.376-1.638.864-.42 1.878-.63 3.042-.63 1.008 0 1.902.174 2.682.522.78.336 1.428.816 1.944 1.44.528.612.924 1.35 1.188 2.214.276.852.414 1.794.414 2.826V121h-4.446v-11.754c0-1.128-.258-1.998-.774-2.61-.516-.624-1.302-.936-2.358-.936-.768 0-1.488.174-2.16.522-.672.348-1.308.822-1.908 1.422V121h-4.446V94.252h4.446v10.26zm24.047-2.268c1.368 0 2.61.222 3.726.666 1.128.444 2.088 1.074 2.88 1.89.804.816 1.422 1.812 1.854 2.988.432 1.176.648 2.49.648 3.942 0 1.464-.216 2.784-.648 3.96-.432 1.176-1.05 2.178-1.854 3.006-.792.828-1.752 1.464-2.88 1.908-1.116.444-2.358.666-3.726.666-1.38 0-2.634-.222-3.762-.666-1.128-.444-2.094-1.08-2.898-1.908-.792-.828-1.41-1.83-1.854-3.006-.432-1.176-.648-2.496-.648-3.96 0-1.452.216-2.766.648-3.942.444-1.176 1.062-2.172 1.854-2.988.804-.816 1.77-1.446 2.898-1.89 1.128-.444 2.382-.666 3.762-.666zm0 15.606c1.536 0 2.67-.516 3.402-1.548.744-1.032 1.116-2.544 1.116-4.536 0-1.992-.372-3.51-1.116-4.554-.732-1.044-1.866-1.566-3.402-1.566-1.56 0-2.718.528-3.474 1.584-.744 1.044-1.116 2.556-1.116 4.536 0 1.98.372 3.492 1.116 4.536.756 1.032 1.914 1.548 3.474 1.548zm28.412-15.318V121h-2.718c-.588 0-.96-.27-1.116-.81l-.306-1.476c-.756.768-1.59 1.392-2.502 1.872-.912.468-1.986.702-3.222.702-1.008 0-1.902-.168-2.682-.504-.768-.348-1.416-.834-1.944-1.458s-.93-1.362-1.206-2.214c-.264-.864-.396-1.812-.396-2.844v-11.736h4.446v11.736c0 1.128.258 2.004.774 2.628.528.612 1.314.918 2.358.918.768 0 1.488-.168 2.16-.504.672-.348 1.308-.822 1.908-1.422v-13.356h4.446zm10.564 18.756c-1.608 0-2.844-.45-3.708-1.35-.852-.912-1.278-2.166-1.278-3.762v-10.314h-1.89c-.24 0-.444-.078-.612-.234-.168-.156-.252-.39-.252-.702v-1.764l2.97-.486.936-5.04c.06-.24.174-.426.342-.558.168-.132.384-.198.648-.198h2.304v5.814h4.932v3.168h-4.932v10.008c0 .576.138 1.026.414 1.35.288.324.678.486 1.17.486.276 0 .504-.03.684-.09.192-.072.354-.144.486-.216.144-.072.27-.138.378-.198.108-.072.216-.108.324-.108.132 0 .24.036.324.108.084.06.174.156.27.288l1.332 2.16c-.648.54-1.392.948-2.232 1.224-.84.276-1.71.414-2.61.414zm17.288-.288v-15.12l-1.602-.252c-.348-.072-.63-.192-.846-.36-.204-.18-.306-.432-.306-.756v-1.818h2.754v-1.368c0-1.056.156-2.004.468-2.844.324-.84.78-1.554 1.368-2.142.6-.588 1.326-1.038 2.178-1.35.852-.312 1.812-.468 2.88-.468.852 0 1.644.114 2.376.342l-.09 2.232c-.012.168-.06.306-.144.414-.084.096-.198.174-.342.234-.132.048-.288.084-.468.108-.18.012-.372.018-.576.018-.528 0-1.002.06-1.422.18-.408.108-.756.306-1.044.594-.288.276-.51.648-.666 1.116-.144.456-.216 1.026-.216 1.71v1.224h4.806v3.168h-4.662V121h-4.446zm23.013-11.358c0-.576-.084-1.116-.252-1.62-.156-.516-.396-.966-.72-1.35-.324-.384-.738-.684-1.242-.9-.492-.228-1.068-.342-1.728-.342-1.284 0-2.298.366-3.042 1.098-.732.732-1.2 1.77-1.404 3.114h8.388zm-8.478 2.682c.072.948.24 1.77.504 2.466.264.684.612 1.254 1.044 1.71.432.444.942.78 1.53 1.008.6.216 1.26.324 1.98.324s1.338-.084 1.854-.252c.528-.168.984-.354 1.368-.558.396-.204.738-.39 1.026-.558.3-.168.588-.252.864-.252.372 0 .648.138.828.414l1.278 1.62c-.492.576-1.044 1.062-1.656 1.458-.612.384-1.254.696-1.926.936-.66.228-1.338.39-2.034.486-.684.096-1.35.144-1.998.144-1.284 0-2.478-.21-3.582-.63-1.104-.432-2.064-1.062-2.88-1.89-.816-.84-1.458-1.872-1.926-3.096-.468-1.236-.702-2.664-.702-4.284 0-1.26.204-2.442.612-3.546.408-1.116.99-2.082 1.746-2.898.768-.828 1.698-1.482 2.79-1.962 1.104-.48 2.346-.72 3.726-.72 1.164 0 2.238.186 3.222.558.984.372 1.83.918 2.538 1.638.708.708 1.26 1.584 1.656 2.628.408 1.032.612 2.214.612 3.546 0 .672-.072 1.128-.216 1.368-.144.228-.42.342-.828.342h-11.43zm25.566.792c-1.284.06-2.364.174-3.24.342-.876.156-1.578.36-2.106.612-.528.252-.906.546-1.134.882-.228.336-.342.702-.342 1.098 0 .78.228 1.338.684 1.674.468.336 1.074.504 1.818.504.912 0 1.698-.162 2.358-.486.672-.336 1.326-.84 1.962-1.512v-3.114zm-10.188-8.01c2.124-1.944 4.68-2.916 7.668-2.916 1.08 0 2.046.18 2.898.54.852.348 1.572.84 2.16 1.476.588.624 1.032 1.374 1.332 2.25.312.876.468 1.836.468 2.88V121h-2.016c-.42 0-.744-.06-.972-.18-.228-.132-.408-.39-.54-.774l-.396-1.332c-.468.42-.924.792-1.368 1.116-.444.312-.906.576-1.386.792-.48.216-.996.378-1.548.486-.54.12-1.14.18-1.8.18-.78 0-1.5-.102-2.16-.306-.66-.216-1.23-.534-1.71-.954-.48-.42-.852-.942-1.116-1.566-.264-.624-.396-1.35-.396-2.178 0-.468.078-.93.234-1.386.156-.468.408-.912.756-1.332.36-.42.822-.816 1.386-1.188s1.254-.696 2.07-.972c.828-.276 1.788-.498 2.88-.666 1.092-.18 2.34-.288 3.744-.324v-1.08c0-1.236-.264-2.148-.792-2.736-.528-.6-1.29-.9-2.286-.9-.72 0-1.32.084-1.8.252-.468.168-.882.36-1.242.576l-.99.558c-.288.168-.612.252-.972.252-.312 0-.576-.078-.792-.234-.216-.168-.39-.36-.522-.576l-.792-1.422zm22.907.63c.576-1.104 1.26-1.968 2.052-2.592.792-.636 1.728-.954 2.808-.954.852 0 1.536.186 2.052.558l-.288 3.33c-.06.216-.15.372-.27.468-.108.084-.258.126-.45.126-.18 0-.45-.03-.81-.09-.348-.06-.69-.09-1.026-.09-.492 0-.93.072-1.314.216-.384.144-.732.354-1.044.63-.3.264-.57.588-.81.972-.228.384-.444.822-.648 1.314V121h-4.446v-18.468h2.61c.456 0 .774.084.954.252.18.156.3.444.36.864l.27 2.088z"/>
    <path fill="url(#prefix__pattern0)" d="M256 13H311V72H256z"/>
    <defs>
        <pattern id="prefix__pattern0" width="1" height="1" patternContentUnits="objectBoundingBox">
            <use transform="matrix(.01532 0 0 .01429 -.006 0)" xlink:href="#prefix__image0"/>
        </pattern>
    </defs>
</svg>
